<svg width="16" height="15" viewBox="0 0 16 15" fill="none" xmlns="http://www.w3.org/2000/svg">
<path d="M15.8081 0C15.2525 0.534612 14.7433 1.11346 14.2445 1.43743C14.1081 1.57538 14.1891 1.11035 13.957 1.15338C13.8206 1.29266 13.5448 1.56773 13.4103 1.70939C13.1305 1.71143 13.2544 1.28668 12.9739 1.28907C12.6931 1.29206 12.2488 1.95757 12.0149 2.00874C11.5094 2.34873 12.1384 1.58363 12.5473 1.15255C12.3145 1.20336 12.8183 0.863964 12.7243 0.772869C12.5307 0.585779 12.3358 0.394143 11.64 0.8379C11.4533 0.937123 11.4443 0.652845 11.3468 0.560077C10.5106 1.43396 9.67768 2.3718 8.87899 3.3369C8.08735 4.30678 7.33899 5.31014 6.69356 6.32592C6.23318 7.0377 5.66247 7.75462 5.08865 8.48362L4.87251 8.75666L4.79253 8.85648L4.75691 8.89892L4.63043 9.05194C4.5734 9.11829 4.52463 9.20257 4.47167 9.29008C4.4309 9.25804 4.38739 9.23544 4.32833 9.21715C4.29976 9.20747 4.27011 9.16683 4.24525 9.12199L4.2272 9.08757L4.21835 9.06987L4.20245 9.04501C4.18129 9.01201 4.16049 8.97974 4.13921 8.94997C4.12857 8.93514 4.11769 8.9208 4.10645 8.90729C4.07382 8.87322 4.04166 8.83951 4.0101 8.80651C3.94423 8.74028 3.878 8.67955 3.81165 8.62707C3.67919 8.52199 3.54124 8.45433 3.40878 8.4401C3.55821 8.58654 3.70526 8.73538 3.84823 8.8872C3.27357 8.57638 2.96347 8.00101 2.43448 7.63782C2.34745 7.74063 2.30393 7.79084 2.10011 7.70991C2.4224 7.97243 2.92725 8.34136 3.17268 8.68015L3.03113 8.82409C2.69688 8.58702 2.33513 8.07525 1.97171 7.86568C1.9288 7.9178 1.84308 8.02169 1.80028 8.07369C1.75784 8.12498 1.60327 7.99766 1.44427 7.87464C1.60387 7.99706 1.91385 8.25157 2.06281 8.38475C2.01857 8.43544 1.93011 8.53706 1.88588 8.58774C1.84093 8.63915 1.6952 8.50896 1.54326 8.38547C1.45683 8.48864 1.22455 8.47106 1.32915 8.64512C1.47667 8.76598 1.62108 8.89139 1.76382 9.01906C1.45515 8.78929 1.1698 8.68541 0.951026 8.66449C0.732136 8.64285 0.58079 8.69856 0.521017 8.78009C0.703325 8.83353 0.580071 8.99277 0.761184 9.05099C0.488977 8.96097 0.205653 8.90311 0.0868236 8.94578C0.0682939 8.94853 0.0731948 8.96658 0.0578928 8.97089C0.0433082 8.97579 0.0313547 8.982 0.0225083 8.98977C0.00481539 9.00532 -0.000685118 9.02672 0.00840041 9.05505C-0.0114443 9.06485 0.00708596 9.09725 0.0306366 9.13108C0.0572955 9.16682 0.0996142 9.21153 0.159866 9.26653C0.688978 9.69402 1.22921 10.2046 1.72832 10.741L1.91648 10.9433L2.27536 11.3534C2.50919 11.6053 2.78056 11.9703 3.03878 12.2934C3.55594 12.967 4.0737 13.6411 4.59193 14.3161C4.98775 13.761 5.38381 13.2055 5.7801 12.6496L6.37473 11.8204L6.93229 11.0687L7.66165 10.0924L8.25818 9.30586C9.05735 8.25923 9.87099 7.22228 10.698 6.19992C11.524 5.17624 12.3738 4.17827 13.2349 3.19823C14.1023 2.22584 14.9872 1.27795 15.9004 0.378484C16.1304 0.0633597 15.9027 0.0975499 15.8081 0Z" fill="#FF553C"/>
</svg>
