<svg width="159" height="20" viewBox="0 0 159 20" fill="none" xmlns="http://www.w3.org/2000/svg">
<path d="M154.062 5.64062C155.67 5.64062 156.857 6.1268 157.624 7.09914C158.409 8.07149 158.802 9.5674 158.802 11.5869V19.777H153.809V11.7271C153.809 10.9231 153.688 10.3434 153.445 9.98813C153.202 9.63285 152.8 9.45521 152.239 9.45521C151.547 9.45521 151.014 9.69829 150.64 10.1845C150.285 10.6706 150.107 11.3625 150.107 12.26V19.777H145.114V11.7271C145.114 10.9231 144.993 10.3434 144.75 9.98813C144.507 9.63285 144.105 9.45521 143.544 9.45521C142.852 9.45521 142.328 9.69829 141.973 10.1845C141.618 10.6706 141.44 11.3625 141.44 12.26V19.777H136.448V5.97721H141.3V7.71621C142.216 6.33249 143.619 5.64062 145.507 5.64062C147.489 5.64062 148.826 6.45403 149.518 8.08084C150.004 7.31418 150.64 6.71581 151.425 6.28574C152.229 5.85566 153.108 5.64062 154.062 5.64062Z" fill="#263C3C"/>
<path d="M134.171 13.8308H125.645C125.794 14.7283 126.121 15.3734 126.626 15.7661C127.131 16.1588 127.851 16.3551 128.786 16.3551C129.459 16.3551 130.142 16.2429 130.834 16.0185C131.525 15.7941 132.142 15.4856 132.685 15.0929L133.947 18.3746C133.255 18.8795 132.423 19.2815 131.451 19.5807C130.478 19.8612 129.506 20.0014 128.534 20.0014C126.944 20.0014 125.57 19.7116 124.41 19.1319C123.251 18.5522 122.354 17.7201 121.718 16.6356C121.101 15.5511 120.792 14.2795 120.792 12.821C120.792 11.4373 121.082 10.2032 121.662 9.11863C122.26 8.01539 123.083 7.16459 124.13 6.56622C125.196 5.94916 126.393 5.64062 127.72 5.64062C129.702 5.64062 131.273 6.27639 132.432 7.54792C133.592 8.80074 134.171 10.521 134.171 12.7088V13.8308ZM127.86 9.00643C126.533 9.00643 125.776 9.82919 125.589 11.4747H129.992C129.88 9.82919 129.169 9.00643 127.86 9.00643Z" fill="#263C3C"/>
<path d="M113.548 19.7741V0H118.541V19.7741H113.548Z" fill="#263C3C"/>
<path d="M110.632 0V19.7741H105.723V17.8949C105.33 18.5493 104.751 19.0636 103.984 19.4375C103.236 19.8115 102.404 19.9985 101.488 19.9985C100.31 19.9985 99.2533 19.6993 98.3184 19.101C97.4021 18.4839 96.6822 17.6237 96.1586 16.5205C95.6351 15.4173 95.3733 14.1551 95.3733 12.734C95.3733 11.3129 95.6257 10.0694 96.1306 9.00354C96.6542 7.919 97.3741 7.0869 98.2903 6.50723C99.2253 5.92756 100.291 5.63773 101.488 5.63773C102.367 5.63773 103.171 5.81537 103.9 6.17065C104.648 6.52593 105.228 7.00275 105.639 7.60112V0H110.632ZM103.002 16.2681C103.881 16.2681 104.554 15.9689 105.022 15.3705C105.489 14.7722 105.723 13.912 105.723 12.7901C105.723 11.6868 105.489 10.8454 105.022 10.2657C104.554 9.66735 103.881 9.36817 103.002 9.36817C102.142 9.36817 101.478 9.658 101.011 10.2377C100.544 10.8173 100.31 11.6494 100.31 12.734C100.31 13.8559 100.544 14.7254 101.011 15.3425C101.497 15.9595 102.161 16.2681 103.002 16.2681Z" fill="#263C3C"/>
<path d="M93.7416 13.8308H85.2149C85.3645 14.7283 85.6917 15.3734 86.1966 15.7661C86.7015 16.1588 87.4214 16.3551 88.3563 16.3551C89.0295 16.3551 89.712 16.2429 90.4039 16.0185C91.0957 15.7941 91.7128 15.4856 92.2551 15.0929L93.5173 18.3746C92.8254 18.8795 91.9933 19.2815 91.0209 19.5807C90.0486 19.8612 89.0763 20.0014 88.1039 20.0014C86.5145 20.0014 85.1401 19.7116 83.9808 19.1319C82.8215 18.5522 81.9239 17.7201 81.2881 16.6356C80.6711 15.5511 80.3625 14.2795 80.3625 12.821C80.3625 11.4373 80.6524 10.2032 81.2321 9.11863C81.8304 8.01539 82.6532 7.16459 83.7003 6.56622C84.7661 5.94916 85.9629 5.64062 87.2905 5.64062C89.2726 5.64062 90.8433 6.27639 92.0026 7.54792C93.162 8.80074 93.7416 10.521 93.7416 12.7088V13.8308ZM87.4307 9.00643C86.1031 9.00643 85.3458 9.82919 85.1588 11.4747H89.5624C89.4502 9.82919 88.7397 9.00643 87.4307 9.00643Z" fill="#263C3C"/>
<path d="M73.7208 0H77.7037V19.7741H73.2159V9.39622L69.4013 16.4925H66.0916L62.3051 9.56451L62.2771 19.7741H57.7893V0H61.8563L67.8026 11.2474L73.7208 0Z" fill="#263C3C"/>
<path d="M48.9057 20.0014C47.578 20.0014 46.3533 19.8612 45.2313 19.5807C44.1094 19.3002 43.1651 18.8888 42.3984 18.3466L43.6606 14.9527C44.4086 15.4389 45.2594 15.8315 46.213 16.1307C47.1667 16.4112 48.0829 16.5515 48.9618 16.5515C49.504 16.5515 49.9248 16.4767 50.2239 16.3271C50.5231 16.1588 50.6727 15.9344 50.6727 15.6539C50.6727 15.4108 50.5605 15.2238 50.3361 15.0929C50.1304 14.962 49.7004 14.8218 49.0459 14.6722L46.8301 14.1673C45.4277 13.8495 44.4179 13.382 43.8009 12.7649C43.1838 12.1479 42.8753 11.269 42.8753 10.1284C42.8753 9.24952 43.137 8.47351 43.6606 7.80035C44.1842 7.10849 44.9134 6.57557 45.8484 6.20159C46.802 5.82761 47.8772 5.64062 49.074 5.64062C50.065 5.64062 51.0467 5.79022 52.019 6.0894C53.0101 6.36988 53.9076 6.77191 54.7117 7.29548L53.4215 10.5491C52.6735 10.0816 51.9162 9.72634 51.1495 9.48326C50.4016 9.22147 49.691 9.09058 49.0179 9.09058C48.4756 9.09058 48.0549 9.17472 47.7557 9.34301C47.4565 9.5113 47.3069 9.75439 47.3069 10.0723C47.3069 10.2593 47.4004 10.4182 47.5874 10.5491C47.7744 10.6613 48.1016 10.7735 48.5691 10.8857L50.8971 11.4186C52.3556 11.7365 53.4121 12.232 54.0666 12.9052C54.721 13.5596 55.0483 14.4572 55.0483 15.5978C55.0483 16.9628 54.4967 18.038 53.3934 18.8234C52.3089 19.6087 50.813 20.0014 48.9057 20.0014Z" fill="#FF553C"/>
<path d="M40.4461 5.97266V19.7725H35.5937V17.9213C35.1636 18.5944 34.612 19.1087 33.9388 19.4639C33.2844 19.8192 32.5271 19.9969 31.6669 19.9969C29.8905 19.9969 28.5723 19.5107 27.7121 18.5383C26.8519 17.5473 26.4219 16.0514 26.4219 14.0506V5.97266H31.4145V14.1628C31.4145 15.5091 31.9942 16.1823 33.1535 16.1823C33.8267 16.1823 34.3783 15.9392 34.8083 15.453C35.2384 14.9668 35.4535 14.3311 35.4535 13.5457V5.97266H40.4461Z" fill="#FF553C"/>
<path d="M18.6455 19.7741V0H23.6381V19.7741H18.6455Z" fill="#FF553C"/>
<path d="M0 0H9.56451C11.7523 0 13.4539 0.560968 14.6693 1.6829C15.8847 2.78614 16.4925 4.3288 16.4925 6.31089C16.4925 8.27428 15.8754 9.81694 14.6413 10.9389C13.4258 12.0608 11.7336 12.6218 9.56451 12.6218H5.16091V19.7741H0V0ZM8.86329 8.7511C9.81694 8.7511 10.5182 8.55476 10.9669 8.16209C11.4344 7.76941 11.6681 7.16169 11.6681 6.33894C11.6681 5.51619 11.4344 4.90847 10.9669 4.51579C10.5182 4.10442 9.81694 3.89873 8.86329 3.89873H5.16091V8.7511H8.86329Z" fill="#FF553C"/>
<ellipse cx="8.36945" cy="6.60719" rx="5.60968" ry="4.09938" fill="#FF553C"/>
<g clip-path="url(#clip0_85_824)">
<path d="M12.2687 5.54747H9.38684C9.29322 5.54747 9.21732 5.47157 9.21732 5.37795V2.49605C9.21732 2.02796 8.83779 1.64844 8.3697 1.64844C7.90161 1.64844 7.52208 2.02796 7.52208 2.49605V5.37795C7.52208 5.47157 7.44618 5.54747 7.35256 5.54747H4.47066C4.00257 5.54747 3.62305 5.927 3.62305 6.39509C3.62305 6.86318 4.00257 7.24271 4.47066 7.24271H7.35256C7.44618 7.24271 7.52208 7.31861 7.52208 7.41223V10.2941C7.52208 10.7622 7.90161 11.1417 8.3697 11.1417C8.83779 11.1417 9.21732 10.7622 9.21732 10.2941V7.41223C9.21732 7.31861 9.29322 7.24271 9.38684 7.24271H12.2687C12.7368 7.24271 13.1164 6.86318 13.1164 6.39509C13.1164 5.927 12.7368 5.54747 12.2687 5.54747Z" fill="white"/>
</g>
<defs>
<clipPath id="clip0_85_824">
<rect width="9.4933" height="9.4933" fill="white" transform="translate(3.62305 1.64844)"/>
</clipPath>
</defs>
</svg>
