<svg width="120" height="120" viewBox="0 0 120 120" fill="none" xmlns="http://www.w3.org/2000/svg">
<g clip-path="url(#clip0_15_91)">
<path fill-rule="evenodd" clip-rule="evenodd" d="M43.1242 30V24.375C43.1242 19.8994 44.9021 15.6075 48.068 12.4425C51.2319 9.2775 55.524 7.5 59.9996 7.5C64.4752 7.5 68.7673 9.2775 71.9312 12.4425C75.0971 15.6075 76.875 19.8994 76.875 24.375V30C76.875 32.07 78.5559 33.75 80.6246 33.75C82.6933 33.75 84.3742 32.07 84.3742 30C84.3742 30 84.3742 27.6581 84.3742 24.375C84.3742 17.91 81.8064 11.7112 77.2359 7.14C72.6633 2.56875 66.4635 0 59.9996 0C53.5357 0 47.3359 2.56875 42.7633 7.14C38.1928 11.7112 35.625 17.91 35.625 24.375V30C35.625 32.07 37.3059 33.75 39.3746 33.75C41.4433 33.75 43.1242 32.07 43.1242 30Z" fill="#263C3C"/>
<path fill-rule="evenodd" clip-rule="evenodd" d="M97.5 88.125C99.5813 88.125 101.25 86.4469 101.25 84.375V37.5C101.25 34.5169 100.069 31.6556 97.95 29.5444C95.85 27.435 92.9813 26.25 90 26.25H30C27.0187 26.25 24.15 27.435 22.05 29.5444C19.9313 31.6556 18.75 34.5169 18.75 37.5V84.375C18.75 86.4469 20.4187 88.125 22.5 88.125H97.5Z" fill="#FAE100"/>
<path fill-rule="evenodd" clip-rule="evenodd" d="M90 26.25H84.375C87.3563 26.25 90.225 27.435 92.325 29.5444C94.4437 31.6556 95.625 34.5169 95.625 37.5V84.375C95.625 86.4469 93.9563 88.125 91.875 88.125H97.5C99.5813 88.125 101.25 86.4469 101.25 84.375V37.5C101.25 34.5169 100.069 31.6556 97.95 29.5444C95.85 27.435 92.9813 26.25 90 26.25Z" fill="#F7CD03"/>
<path fill-rule="evenodd" clip-rule="evenodd" d="M120 97.5C120 85.0744 109.931 75 97.5 75H22.5C10.0687 75 0 85.0744 0 97.5C0 109.926 10.0687 120 22.5 120H97.5C109.931 120 120 109.926 120 97.5Z" fill="#355151"/>
<path fill-rule="evenodd" clip-rule="evenodd" d="M91.875 120H97.5C109.931 120 120 109.926 120 97.5C120 85.0744 109.931 75 97.5 75H91.875C104.306 75 114.375 85.0744 114.375 97.5C114.375 109.926 104.306 120 91.875 120Z" fill="#263C3C"/>
<path fill-rule="evenodd" clip-rule="evenodd" d="M56.1724 91.005L53.6787 89.565C51.8974 88.53 49.5912 89.145 48.56 90.9375C47.5287 92.73 48.1474 95.025 49.9287 96.06L52.4224 97.5L49.9287 98.94C48.1474 99.975 47.5287 102.27 48.56 104.062C49.5912 105.855 51.8974 106.47 53.6787 105.435L56.1724 103.995V106.875C56.1724 108.945 57.8599 110.625 59.9224 110.625C62.0036 110.625 63.6724 108.945 63.6724 106.875V103.995L66.1662 105.435C67.9662 106.47 70.2537 105.855 71.3037 104.062C72.335 102.27 71.7162 99.975 69.9162 98.94L67.4224 97.5L69.9162 96.06C71.7162 95.025 72.335 92.73 71.3037 90.9375C70.2537 89.145 67.9662 88.53 66.1662 89.565L63.6724 91.005V88.125C63.6724 86.055 62.0036 84.375 59.9224 84.375C57.8599 84.375 56.1724 86.055 56.1724 88.125V91.005Z" fill="#F4F6F2"/>
<path fill-rule="evenodd" clip-rule="evenodd" d="M24.3739 91.005L21.8802 89.565C20.0802 88.53 17.7925 89.145 16.7613 90.9375C15.73 92.73 16.3302 95.025 18.1302 96.06L20.6239 97.5L18.1302 98.94C16.3302 99.975 15.73 102.27 16.7613 104.062C17.7925 105.855 20.0802 106.47 21.8802 105.435L24.3739 103.995V106.875C24.3739 108.945 26.0614 110.625 28.1239 110.625C30.1864 110.625 31.8739 108.945 31.8739 106.875V103.995L34.3675 105.435C36.1675 106.47 38.4552 105.855 39.4865 104.062C40.5177 102.27 39.9175 99.975 38.1175 98.94L35.6239 97.5L38.1175 96.06C39.9175 95.025 40.5177 92.73 39.4865 90.9375C38.4552 89.145 36.1675 88.53 34.3675 89.565L31.8739 91.005V88.125C31.8739 86.055 30.1864 84.375 28.1239 84.375C26.0614 84.375 24.3739 86.055 24.3739 88.125V91.005Z" fill="#F4F6F2"/>
<path fill-rule="evenodd" clip-rule="evenodd" d="M88.1239 91.005L85.6302 89.565C83.8302 88.53 81.5425 89.145 80.5113 90.9375C79.48 92.73 80.0802 95.025 81.8802 96.06L84.3739 97.5L81.8802 98.94C80.0802 99.975 79.48 102.27 80.5113 104.062C81.5425 105.855 83.8302 106.47 85.6302 105.435L88.1239 103.995V106.875C88.1239 108.945 89.8114 110.625 91.8739 110.625C93.9364 110.625 95.6239 108.945 95.6239 106.875V103.995L98.1175 105.435C99.9175 106.47 102.205 105.855 103.236 104.062C104.268 102.27 103.668 99.975 101.868 98.94L99.3739 97.5L101.868 96.06C103.668 95.025 104.268 92.73 103.236 90.9375C102.205 89.145 99.9175 88.53 98.1175 89.565L95.6239 91.005V88.125C95.6239 86.055 93.9364 84.375 91.8739 84.375C89.8114 84.375 88.1239 86.055 88.1239 88.125V91.005Z" fill="#F4F6F2"/>
<path fill-rule="evenodd" clip-rule="evenodd" d="M56.25 59.3588V67.5C56.25 69.57 57.9375 71.25 60 71.25C62.0625 71.25 63.75 69.57 63.75 67.5V59.3588C68.1187 57.8138 71.25 53.6437 71.25 48.75C71.25 42.5419 66.2062 37.5 60 37.5C53.7938 37.5 48.75 42.5419 48.75 48.75C48.75 53.6437 51.8813 57.8138 56.25 59.3588Z" fill="#E19F09"/>
</g>
<defs>
<clipPath id="clip0_15_91">
<rect width="120" height="120" fill="white"/>
</clipPath>
</defs>
</svg>
