<svg width="120" height="120" viewBox="0 0 120 120" fill="none" xmlns="http://www.w3.org/2000/svg">
<path d="M92.0541 46.0397C92.6098 44.4092 93.074 42.7475 93.4457 41.0657C93.4768 40.9219 93.1957 40.4385 92.7434 39.7775C89.9831 35.7464 86.0564 32.6547 81.5118 30.8603L69.1714 25.986C63.3376 23.6825 56.8447 23.6871 51.0137 25.9988L38.6953 30.885C34.1561 32.6849 30.2349 35.7803 27.4801 39.8123C27.0278 40.4751 26.7458 40.9604 26.7779 41.1032C27.199 43.002 27.741 44.8733 28.3956 46.7044C34.7393 64.4198 49.9114 73.0148 49.9114 73.0148L70.3487 73.0029C70.3487 73.0029 85.4916 64.4015 91.8224 46.7026C91.9012 46.4819 91.9781 46.2613 92.0541 46.0397Z" fill="#263C3C"/>
<path d="M41.7387 31.5674L39.4022 31.5692C38.5563 31.5692 37.7772 31.8558 37.1555 32.3364C36.077 33.1714 35.6037 34.5749 35.8482 35.9171L36.7692 40.968C37.4833 44.7116 41.7506 42.9987 41.7506 42.9987L41.7387 31.5674Z" fill="#EFD0AF"/>
<path d="M78.668 31.5458L81.0044 31.5449C81.8503 31.544 82.6304 31.8297 83.252 32.3094C84.3314 33.1434 84.8066 34.546 84.5631 35.8891L83.6484 40.941C82.938 44.6855 78.6689 42.9771 78.6689 42.9771L78.668 31.5458Z" fill="#FAE0C1"/>
<path d="M67.5381 82.6572L75.5215 75.1498C76.9031 73.8507 76.2219 71.5317 74.357 71.1865C72.1881 70.7516 70.6262 68.2367 70.6244 66.0239L70.6189 56.1646L60.1086 56.171L49.5984 56.1765L49.6039 66.0367C49.6057 68.2486 48.0465 70.7663 45.8777 71.203C44.0127 71.5509 43.3343 73.8699 44.7177 75.1682L52.7093 82.6663C56.8796 86.5775 63.3725 86.5747 67.5381 82.6572Z" fill="#FAE0C1"/>
<path d="M74.355 71.187C72.1862 70.7521 70.6243 68.2372 70.6224 66.0244L70.6169 56.165L62.3131 56.1696L62.3186 66.0244C62.3195 68.2372 63.8814 70.7521 66.0512 71.187C67.9161 71.5322 68.5973 73.8512 67.2158 75.1503L59.2324 82.6577C58.2518 83.5796 57.1422 84.2845 55.9648 84.7725C59.7954 86.361 64.3474 85.656 67.5362 82.6577L75.5196 75.1503C76.9011 73.8512 76.22 71.5322 74.355 71.187Z" fill="#EFD0AF"/>
<path d="M73.1414 10.5486C70.1018 7.74066 65.8309 5.29163 60.1894 5.22754C54.5488 5.29803 50.2797 7.75256 47.2429 10.5632C43.3702 14.1484 41.2746 19.4704 41.2773 24.9608V25.6246H41.2828L41.2938 44.7637C41.4037 50.1012 45.0905 53.7944 48.293 56.9667C51.2392 59.8854 54.5818 63.3324 60.2224 63.3965C65.8638 63.326 69.2018 59.8745 72.1453 56.953C75.3441 53.777 79.0264 50.0792 79.1298 44.7417L79.1188 25.6026H79.1243V24.9398C79.1207 19.4484 77.0186 14.1292 73.1414 10.5486Z" fill="#FAE0C1"/>
<path d="M79.1182 25.6028H79.1237V24.94C79.12 19.4487 77.0179 14.1295 73.1407 10.5488C72.3927 9.85761 71.5696 9.18835 70.6706 8.57129V25.6028L70.666 12.7324L70.677 44.7419C70.5726 50.0804 66.8904 53.7773 63.6915 56.9532C61.5684 59.0608 59.2393 61.4439 55.9883 62.635C57.248 63.0964 58.6451 63.3784 60.2217 63.3967C65.8632 63.3262 69.2012 59.8747 72.1446 56.9532C75.3434 53.7773 79.0257 50.0795 79.1292 44.7419L79.1182 25.6028Z" fill="#EFD0AF"/>
<path d="M94.7233 68.8541L78.1907 65.7065C74.676 65.0381 71.0129 65.5756 67.9093 67.3553C65.6827 68.6316 62.6642 69.4922 61.1591 69.8712C60.5457 70.0259 59.9067 70.0232 59.2942 69.8639C57.7991 69.4748 54.8017 68.5995 52.5477 67.327C49.4184 65.5609 45.7828 64.9127 42.2581 65.6103C35.6479 66.9196 27.0127 68.6288 27.0127 68.6288C24.7449 69.0784 23.9045 69.6249 23.3451 70.4169L8.50256 95.8356C7.02673 98.3643 6.86194 101.45 8.06128 104.12L14.0516 117.465C14.5807 118.984 16.0135 120.001 17.6212 119.999L102.863 119.951C104.483 119.95 105.922 118.917 106.44 117.383L112.273 103.997C113.422 101.359 113.251 98.3322 111.812 95.8411L97.1146 70.4031C96.5497 69.5947 95.6919 69.0381 94.7233 68.8541Z" fill="#355050"/>
<path d="M106.438 117.384L112.271 103.998C113.42 101.359 113.249 98.3325 111.81 95.8413L97.1128 70.4034C96.5488 69.5941 95.6901 69.0384 94.7214 68.8543L78.1888 65.7068C74.6741 65.0384 71.0111 65.5758 67.9075 67.3556C66.5122 68.1558 64.8066 68.7921 63.3564 69.2489C63.3564 69.2489 63.3564 69.2489 63.3555 69.2489C63.7931 69.2956 84.1398 73.909 84.1398 73.909C85.1084 74.0939 85.9662 74.6496 86.5311 75.458L101.227 98.4808C102.667 100.972 102.839 104 101.689 106.637L95.886 119.955L102.861 119.951C104.481 119.951 105.92 118.917 106.438 117.384Z" fill="#214451"/>
<path d="M99.7445 117.63L20.7638 117.675L16.1935 75.5855C16.0452 74.2241 17.1118 73.0349 18.4823 73.0339L101.976 72.9863C103.346 72.9854 104.414 74.1738 104.267 75.5361L99.7445 117.63Z" fill="#EDEDED"/>
<path d="M67.8107 96.1425C66.8109 96.1425 66.0007 95.3322 65.9998 94.3334C65.9988 93.3327 66.8091 92.5215 67.8088 92.5206L73.2782 92.517H73.28C74.2798 92.517 75.09 93.3272 75.0909 94.326C75.0909 95.3267 74.2807 96.1379 73.2809 96.1388L67.8116 96.1425H67.8107Z" fill="#676A75"/>
<path d="M46.9786 96.1535C45.9789 96.1535 45.1686 95.3442 45.1677 94.3444C45.1677 93.3438 45.978 92.5326 46.9777 92.5326L52.4453 92.528H52.4462C53.4459 92.528 54.2562 93.3383 54.2571 94.338C54.258 95.3378 53.4478 96.1489 52.4471 96.1498L46.9805 96.1535C46.9796 96.1535 46.9786 96.1535 46.9786 96.1535Z" fill="#676A75"/>
<path d="M67.6237 91.9467C66.916 91.9467 66.244 91.5292 65.9538 90.8361C65.5665 89.9133 66.0014 88.8522 66.9233 88.4658L68.1694 87.9431C69.2415 87.4936 70.0032 86.4984 70.1561 85.3466C70.1597 85.3183 70.666 82.5241 70.666 82.5241C70.8445 81.5408 71.7866 80.888 72.7708 81.0656C73.755 81.2442 74.4078 82.1862 74.2293 83.1704L73.7404 85.8685C73.4044 88.2727 71.8104 90.3445 69.5701 91.2838L68.3232 91.8057C68.0952 91.9018 67.8572 91.9467 67.6237 91.9467Z" fill="#676A75"/>
<path d="M52.6308 91.9554C52.3983 91.9554 52.1612 91.9096 51.9332 91.8144L50.6863 91.2934C48.4451 90.3569 46.8484 88.2869 46.5096 85.8836L46.018 83.1855C45.8376 82.2023 46.4904 81.2583 47.4737 81.0789C48.4579 80.8995 49.4009 81.5513 49.5803 82.5355C49.5803 82.5355 50.0893 85.3288 50.093 85.3572C50.2477 86.5089 51.0094 87.5032 52.0824 87.9518L53.3294 88.4727C54.2522 88.8581 54.688 89.9183 54.3026 90.8421C54.0124 91.5361 53.3395 91.9554 52.6308 91.9554Z" fill="#676A75"/>
<path d="M72.4568 107.208C71.5999 107.208 70.8372 106.596 70.6779 105.722C70.6779 105.722 70.1689 102.929 70.1652 102.9C70.0105 101.747 69.2488 100.754 68.1758 100.306L67.0314 99.8276C66.1076 99.4422 65.6728 98.382 66.0582 97.4582C66.4436 96.5354 67.5038 96.0996 68.4267 96.486L69.572 96.9639C71.8132 97.9004 73.4099 99.9705 73.7486 102.374L74.2403 105.072C74.4197 106.056 73.7678 106.999 72.7846 107.178C72.6747 107.199 72.5648 107.208 72.4568 107.208Z" fill="#676A75"/>
<path d="M47.8113 107.221C47.7042 107.221 47.5952 107.212 47.4863 107.192C46.5021 107.014 45.8493 106.071 46.0269 105.087L46.5167 102.389C46.8518 99.985 48.4467 97.9132 50.687 96.9748L51.8314 96.495C52.7533 96.1087 53.8144 96.5426 54.2017 97.4646C54.588 98.3865 54.1541 99.4485 53.2312 99.8349L52.0868 100.315C51.0147 100.764 50.2539 101.759 50.1001 102.912C50.0965 102.94 49.5911 105.734 49.5911 105.734C49.4327 106.608 48.6701 107.221 47.8113 107.221Z" fill="#676A75"/>
<path d="M101.975 72.9863L96.0074 72.99L91.2109 117.63H99.7437L104.266 75.5361C104.413 74.1738 103.345 72.9854 101.975 72.9863Z" fill="#D6D6D6"/>
<path d="M103.289 120H17.2197C15.9581 120.001 14.9354 118.979 14.9345 117.718L14.9336 116.068C14.9336 114.807 15.9544 113.783 17.216 113.783L103.287 113.734C104.547 113.733 105.57 114.755 105.571 116.016L105.572 117.666C105.573 118.928 104.551 119.999 103.289 120Z" fill="#D6D6D6"/>
<path d="M105.572 116.016C105.571 114.755 104.549 113.733 103.288 113.734L97.0879 113.738L97.0897 119.954L103.291 120C104.552 119.999 105.574 118.928 105.573 117.666L105.572 116.016Z" fill="#BEBEBE"/>
<path d="M65.834 86.3345C65.834 89.4858 63.2797 92.0401 60.1285 92.0401C56.9781 92.0401 54.4238 89.4858 54.4238 86.3345C54.4238 83.1842 56.9781 80.6299 60.1285 80.6299C63.2797 80.6299 65.834 83.1842 65.834 86.3345Z" fill="#8C4949"/>
<path d="M63.0607 105.272C61.2581 106.35 59.0086 106.351 57.2059 105.275C54.2561 103.514 52.4489 100.333 52.4461 96.8982L52.4434 91.5167C52.4415 88.6566 54.7587 86.3367 57.6188 86.3358L62.6259 86.333C65.486 86.3312 67.805 88.6484 67.8068 91.5085L67.8105 96.889C67.8123 100.324 66.0078 103.507 63.0607 105.272Z" fill="#E64C3C"/>
<path d="M93.3681 41.4066C93.3937 41.293 93.4194 41.1795 93.445 41.0651C93.445 41.0651 93.445 41.0651 93.445 41.0641C93.4505 40.8472 93.4532 40.6302 93.4532 40.4132C93.4441 25.2072 75.2965 0.102539 60.0768 0C44.8561 0.119934 26.7379 25.2448 26.7461 40.4507C26.747 40.6412 26.7488 40.8316 26.7534 41.0211C26.7653 41.0568 26.7736 41.0852 26.7772 41.1035C26.7992 41.2024 26.8221 41.3013 26.8441 41.4001C28.2073 36.4362 45.6206 32.5186 60.0951 32.4911C74.6135 32.5021 92.0909 36.4224 93.3681 41.4066Z" fill="#355050"/>
<path d="M60.0765 0C58.629 0.0119018 57.1541 0.249023 55.6719 0.682983C68.264 4.36615 81.4531 22.1896 84.1347 35.7568C89.2159 37.2858 92.8139 39.2459 93.3678 41.4075C93.3934 41.2939 93.4191 41.1795 93.4447 41.066C93.4447 41.0651 93.4447 41.0651 93.4447 41.0641C93.4502 40.8481 93.4529 40.6311 93.4529 40.4132C93.4438 25.2072 75.2962 0.102539 60.0765 0Z" fill="#1F3F47"/>
<path d="M61.9051 105.797L61.9023 91.3628H58.3867L58.3895 105.805C59.533 106.172 60.7634 106.17 61.9051 105.797Z" fill="#C03A2B"/>
<path d="M64.6055 91.8115C66.355 91.8106 67.3786 90.116 66.9694 88.6859C66.0456 87.2696 64.448 86.333 62.6307 86.333L57.6173 86.3358C55.8503 86.3376 54.2921 87.2247 53.3591 88.577C52.8583 90.0363 53.859 91.8179 55.6727 91.8161L64.6055 91.8115Z" fill="#C03A2B"/>
</svg>
