<svg width="120" height="120" viewBox="0 0 120 120" fill="none" xmlns="http://www.w3.org/2000/svg">
<g clip-path="url(#clip0_15_28)">
<path d="M114.984 37.8272V111.258H5.01562V37.8272C5.01562 34.0559 8.07469 30.9968 11.8486 30.9968H108.151C111.925 30.9968 114.984 34.0559 114.984 37.8272Z" fill="#EDEDED"/>
<path d="M5.01562 100.351H114.984V111.257H5.01562V100.351Z" fill="#D6D6D6"/>
<path d="M106.533 39.447V96.2438H13.4666V39.447H106.533Z" fill="#67B9CC"/>
<path d="M120 104.694H0.00195312V108.708C0.00195312 114.194 4.44922 118.641 9.93523 118.641H110.067C115.553 118.641 120 114.194 120 108.708V104.694Z" fill="#EDEDED"/>
<path d="M66.5067 111.667H53.4916C49.7534 111.667 46.7227 108.637 46.7227 104.898V104.694H73.2755V104.898C73.2755 108.637 70.245 111.667 66.5067 111.667Z" fill="#D6D6D6"/>
<path d="M20.7907 118.641H9.93539C4.4475 118.641 0 114.194 0 108.708V104.695H10.8553V108.708C10.8553 114.194 15.3028 118.641 20.7907 118.641Z" fill="#D6D6D6"/>
<path d="M86.6922 37.8875V48.0884C86.6922 54.18 83.0535 59.7115 77.4255 62.0487C66.2852 66.6797 53.7156 66.6797 42.5753 62.0487C36.9473 59.7115 33.3086 54.18 33.3086 48.0884V37.8875H86.6922Z" fill="#355050"/>
<path d="M66.9974 64.9808C58.8077 66.2555 50.3451 65.2803 42.5753 62.0497C36.9473 59.7125 33.3086 54.181 33.3086 48.0894V37.8884H47.3003V48.0894C47.3003 54.181 50.939 59.7125 56.567 62.0497C59.9399 63.4524 63.4434 64.4302 66.9974 64.9808Z" fill="#263C3C"/>
<path d="M86.6917 37.8875V41.9775L64.8435 53.5524C61.8133 55.1555 58.1868 55.1555 55.1568 53.5524L33.3086 41.9775V37.8875H86.6917Z" fill="#263C3C"/>
<path d="M99.8587 21.1125L64.8424 2.56271C61.8133 0.957939 58.1861 0.957939 55.1568 2.56271L20.1405 21.1125C16.2084 23.1954 16.2084 28.8286 20.1405 30.9115L55.1568 49.4616C58.1859 51.0664 61.8131 51.0664 64.8424 49.4616L99.8587 30.9115C103.791 28.8286 103.791 23.1957 99.8587 21.1125Z" fill="#355050"/>
<path d="M75.5763 69.2939C74.7764 69.2939 74.1277 68.6451 74.1277 67.8452V44.3198L58.9102 26.9667C58.3828 26.365 58.4428 25.4498 59.0442 24.9222C59.6454 24.3946 60.5611 24.4549 61.0887 25.0563L76.6657 42.8193C76.8973 43.0837 77.0252 43.4231 77.0252 43.7744V67.845C77.025 68.6453 76.3765 69.2939 75.5763 69.2939Z" fill="#E19F09"/>
<path d="M73.5201 68.1752L70.6183 73.2011C68.8282 76.3017 71.0658 80.1773 74.6461 80.1773H76.5117C80.0918 80.1773 82.3294 76.3017 80.5394 73.2011L77.6376 68.1752C76.7226 66.5904 74.4351 66.5904 73.5201 68.1752Z" fill="#FAE100"/>
<path d="M58.7385 89.6045H22.4866C21.4865 89.6045 20.6758 88.7938 20.6758 87.7937C20.6758 86.7936 21.4865 85.9829 22.4866 85.9829H58.7383C59.7384 85.9829 60.5491 86.7936 60.5491 87.7937C60.5491 88.7938 59.7386 89.6045 58.7385 89.6045Z" fill="#355050"/>
<path d="M46.7252 81.9885H22.4866C21.4865 81.9885 20.6758 81.1778 20.6758 80.1777C20.6758 79.1776 21.4865 78.3669 22.4866 78.3669H46.7252C47.7252 78.3669 48.5359 79.1776 48.5359 80.1777C48.5359 81.1778 47.7252 81.9885 46.7252 81.9885Z" fill="#355050"/>
</g>
<defs>
<clipPath id="clip0_15_28">
<rect width="120" height="120" fill="white"/>
</clipPath>
</defs>
</svg>
