<svg width="120" height="120" viewBox="0 0 120 120" fill="none" xmlns="http://www.w3.org/2000/svg">
<g clip-path="url(#clip0_15_46)">
<path d="M60 120C93.1371 120 120 93.1371 120 60C120 26.8629 93.1371 0 60 0C26.8629 0 0 26.8629 0 60C0 93.1371 26.8629 120 60 120Z" fill="#E64C3C"/>
<path fill-rule="evenodd" clip-rule="evenodd" d="M92.0501 22.0964L22.0984 92.0481C5.42141 72.342 6.63489 43.1419 24.8894 24.8874C43.1439 6.63294 72.3439 5.41946 92.0501 22.0964Z" fill="#ECF0F1"/>
<path fill-rule="evenodd" clip-rule="evenodd" d="M109.655 59.9999C109.662 79.332 98.4448 96.9096 80.908 105.045C63.3712 113.181 42.7064 110.394 27.9512 97.9034L97.9029 27.9517C105.5 36.9008 109.666 48.2609 109.655 59.9999Z" fill="#ECF0F1"/>
<path fill-rule="evenodd" clip-rule="evenodd" d="M84.6822 29.4617L35.1719 78.972V31.0341C35.1719 26.4634 38.8771 22.7582 43.4477 22.7582H76.5512C76.8978 22.7541 77.2441 22.7818 77.5857 22.841C81.138 23.2725 84.0056 25.9478 84.6822 29.4617Z" fill="#2FA8CC"/>
<path fill-rule="evenodd" clip-rule="evenodd" d="M84.8269 41.0278V80.6899C84.8269 85.2605 81.1217 88.9658 76.551 88.9658H43.4476C41.6724 88.9695 39.9441 88.3958 38.5234 87.3313L84.8269 41.0278Z" fill="#2FA8CC"/>
<path fill-rule="evenodd" clip-rule="evenodd" d="M42.7461 83.1102L77.4013 48.4551C74.8151 64.3654 66.3116 80.7309 42.7461 83.1102Z" fill="#67B9CC"/>
<path fill-rule="evenodd" clip-rule="evenodd" d="M78.3926 35.7513L35.1719 78.972V31.0341C35.1719 26.4634 38.8771 22.7582 43.4477 22.7582H76.5512C76.8978 22.7541 77.2441 22.7818 77.5857 22.841C78.115 27.1242 78.3845 31.4355 78.3926 35.7513Z" fill="#67B9CC"/>
<path fill-rule="evenodd" clip-rule="evenodd" d="M97.9045 27.9519L27.9528 97.9036C25.8391 96.1209 23.8804 94.1621 22.0977 92.0484L92.0494 22.0967C94.1631 23.8794 96.1218 25.8381 97.9045 27.9519Z" fill="#C03A2B"/>
<path fill-rule="evenodd" clip-rule="evenodd" d="M84.8267 80.6898V88.9657C84.8267 93.5363 81.1215 97.2415 76.5509 97.2415H43.4474C39.4809 97.2444 36.0701 94.4324 35.3164 90.5381L38.5233 87.3312C39.9439 88.3957 41.6722 88.9694 43.4474 88.9657H76.5509C81.1215 88.9657 84.8267 85.2605 84.8267 80.6898Z" fill="#263C3C"/>
<path fill-rule="evenodd" clip-rule="evenodd" d="M69.1785 31.0347H50.8144C48.915 31.0353 47.2591 29.7428 46.7985 27.9002L45.5137 22.7588H74.4792L73.1944 27.9002C72.7338 29.7428 71.0779 31.0353 69.1785 31.0347Z" fill="#263C3C"/>
</g>
<defs>
<clipPath id="clip0_15_46">
<rect width="120" height="120" fill="white"/>
</clipPath>
</defs>
</svg>
